<?xml version="1.0" standalone="no"?>
<!DOCTYPE svg PUBLIC "-//W3C//DTD SVG 20010904//EN"
 "http://www.w3.org/TR/2001/REC-SVG-20010904/DTD/svg10.dtd">
<svg version="1.0" xmlns="http://www.w3.org/2000/svg"
 width="463.000000pt" height="463.000000pt" viewBox="0 0 463.000000 463.000000"
 preserveAspectRatio="xMidYMid meet">
<metadata>
Created by potrace 1.11, written by Peter Selinger 2001-2013
</metadata>
<g transform="translate(0.000000,463.000000) scale(0.100000,-0.100000)"
fill="#000000" stroke="none">
<path d="M2412 4208 c-8 -8 -12 -45 -12 -100 l0 -88 43 0 44 0 -1 90 c-1 69
-5 93 -16 100 -21 13 -44 12 -58 -2z"/>
<path d="M1866 4011 c-11 -12 -14 -25 -9 -37 10 -25 75 -112 88 -117 6 -3 25
6 43 18 l33 22 -42 54 c-65 84 -83 94 -113 60z"/>
<path d="M2969 4020 c-9 -5 -36 -35 -60 -66 -42 -55 -43 -57 -24 -71 49 -36
51 -36 99 25 49 61 57 95 27 112 -23 12 -22 12 -42 0z"/>
<path d="M2312 3924 c-217 -45 -390 -175 -485 -365 -59 -118 -78 -190 -78
-304 -1 -131 19 -221 73 -329 32 -64 124 -184 161 -210 61 -43 58 -37 113
-251 9 -34 25 -69 38 -80 29 -27 29 -72 -1 -101 -29 -29 -29 -38 0 -64 25 -23
33 -90 10 -90 -20 0 -35 -37 -23 -59 5 -11 15 -21 22 -23 13 -5 20 -78 7 -78
-11 0 -39 -29 -39 -41 0 -24 42 -49 83 -49 l42 0 1 -71 c0 -50 4 -73 15 -80 8
-5 44 -9 81 -9 57 0 68 -3 73 -19 11 -37 64 -34 79 4 4 11 22 15 74 15 39 0
73 5 80 12 7 7 12 40 12 80 0 72 0 73 57 68 56 -4 87 55 43 82 -14 9 -20 24
-20 48 0 24 6 39 20 48 11 7 20 23 20 36 0 16 -7 27 -20 31 -15 5 -20 15 -20
43 0 26 6 41 20 50 12 7 20 23 20 38 0 17 -7 28 -20 31 -27 7 -29 78 -2 92 12
7 30 53 56 146 l39 136 87 88 c74 73 95 102 133 181 59 123 77 208 72 330 -4
103 -7 127 -31 198 -56 168 -192 326 -344 400 -47 23 -114 49 -150 58 -83 21
-217 25 -298 8z"/>
<path d="M1538 3583 c-29 -33 -7 -60 68 -82 36 -12 72 -21 79 -21 13 0 41 67
32 76 -6 6 -138 44 -153 44 -6 0 -18 -8 -26 -17z"/>
<path d="M3225 3577 c-33 -11 -61 -20 -62 -21 -2 -2 4 -21 13 -43 l16 -40 66
21 c99 31 109 38 96 73 -12 35 -43 37 -129 10z"/>
<path d="M1578 3101 c-91 -25 -106 -39 -93 -81 4 -13 15 -20 31 -20 22 0 164
36 169 42 1 2 -3 21 -9 43 l-11 41 -87 -25z"/>
<path d="M3210 3096 c0 -13 -3 -31 -6 -40 -4 -11 8 -19 48 -31 29 -9 72 -18
94 -22 36 -5 44 -2 53 16 20 36 -1 56 -83 79 -95 28 -106 28 -106 -2z"/>
<path d="M1147 2823 c-14 -13 -6 -53 21 -104 87 -165 182 -281 345 -425 42
-37 47 -46 47 -84 0 -82 -70 -160 -142 -160 -16 0 -52 23 -99 64 -171 147
-301 311 -394 501 -17 33 -34 63 -40 67 -18 14 -44 8 -55 -12 -8 -16 -3 -35
30 -99 48 -96 153 -254 222 -333 31 -36 47 -62 42 -70 -10 -17 -242 -346 -265
-376 l-18 -23 -15 30 c-22 42 -20 80 9 137 29 57 32 89 9 98 -26 10 -60 -19
-80 -68 -11 -25 -23 -45 -28 -43 -16 5 -88 147 -121 239 -29 83 -36 93 -59 96
-41 5 -48 -29 -19 -107 56 -157 135 -294 236 -412 44 -51 57 -74 57 -99 0 -44
-37 -106 -74 -124 -64 -30 -89 -25 -138 27 -131 138 -244 327 -309 518 -38
113 -60 137 -92 104 -11 -11 -13 -24 -7 -52 22 -97 115 -302 183 -403 34 -51
35 -52 17 -73 -10 -12 -106 -134 -214 -271 l-196 -248 0 -62 0 -61 29 35 c32
40 223 282 349 442 46 59 87 110 92 113 4 3 19 -10 33 -28 13 -17 43 -51 66
-74 l42 -42 -139 -243 c-76 -134 -150 -263 -164 -288 -14 -25 -89 -157 -167
-294 -77 -136 -141 -259 -141 -273 0 -21 4 -24 32 -21 31 3 38 13 152 213 65
116 164 289 218 385 112 196 137 241 223 393 34 61 66 107 75 107 47 1 99 26
141 69 52 55 75 117 65 183 -7 46 -23 20 269 431 12 18 17 16 77 -35 34 -29
73 -61 86 -70 19 -13 21 -19 13 -34 -12 -21 -47 -99 -142 -317 -51 -117 -69
-148 -87 -153 -40 -11 -45 -38 -15 -76 98 -123 303 -283 446 -348 47 -21 71
-39 82 -59 44 -85 -18 -211 -105 -213 -34 -1 -216 94 -320 167 -104 73 -243
202 -310 288 -23 29 -48 35 -68 15 -22 -22 -12 -43 53 -115 36 -39 65 -76 65
-81 0 -5 -48 -117 -106 -248 -59 -132 -133 -299 -165 -372 l-58 -132 44 0 c40
0 44 2 58 38 15 38 288 655 291 659 1 1 15 -9 31 -23 17 -14 67 -53 112 -85
l82 -60 -19 -42 c-22 -51 -28 -63 -124 -291 -42 -98 -76 -183 -76 -187 0 -5
17 -9 38 -9 l39 0 103 242 c56 134 103 244 105 246 2 2 29 -10 62 -27 32 -16
75 -36 96 -45 29 -12 37 -20 33 -33 -3 -10 -14 -58 -26 -108 -30 -127 -29
-127 -48 -121 -13 4 -23 -10 -44 -68 -16 -40 -28 -76 -28 -79 0 -4 29 -7 64
-7 76 0 63 -25 126 237 32 132 46 174 60 178 26 8 90 76 104 110 23 53 27 105
15 159 -11 52 -11 56 35 174 l47 120 72 -33 c40 -18 85 -37 100 -40 19 -5 26
-12 23 -24 -6 -19 -72 -341 -81 -391 -3 -19 -10 -53 -15 -75 -5 -22 -11 -53
-14 -70 -3 -16 -19 -95 -36 -175 -16 -79 -30 -150 -30 -158 0 -9 11 -12 37
-10 l37 3 28 135 c136 667 157 765 169 769 6 2 29 19 50 38 63 57 88 153 63
242 -17 57 -46 87 -120 121 -53 24 -63 33 -78 70 -11 27 -16 65 -15 102 3 66
-8 83 -44 74 -28 -7 -34 -26 -32 -103 1 -29 -2 -53 -6 -53 -16 0 -167 121
-237 190 -69 69 -74 71 -95 57 -12 -8 -21 -23 -19 -33 4 -28 180 -194 262
-248 79 -53 199 -117 247 -134 18 -6 42 -25 53 -44 53 -85 -15 -222 -106 -213
-52 5 -263 113 -373 192 -52 38 -140 113 -196 168 -103 100 -103 101 -90 130
7 17 14 24 14 17 3 -45 306 -302 355 -302 18 0 38 33 31 52 -3 7 -22 24 -43
38 -33 22 -118 86 -132 100 -129 126 -170 160 -186 153 -9 -3 -15 -2 -13 3 13
25 30 63 43 97 9 21 19 36 24 33 13 -8 85 30 118 63 57 56 79 126 68 208 -5
35 -17 54 -70 106 -58 59 -64 68 -64 107 0 23 8 64 17 89 9 26 14 55 10 64
-10 26 -35 32 -56 13 -17 -16 -44 -91 -44 -122 0 -20 -5 -18 -35 17 -52 61
-114 155 -153 232 -32 63 -44 77 -62 77 -13 0 -27 -3 -30 -7z m359 -1331 c21
-18 81 -60 132 -94 51 -34 91 -67 89 -73 -2 -5 -21 -56 -42 -111 l-39 -102
-35 16 c-79 35 -101 79 -95 181 4 52 2 62 -15 71 -45 23 -62 -5 -63 -102 0
-35 -3 -57 -5 -50 -3 6 -9 12 -15 12 -14 0 -130 96 -182 149 l-39 40 22 51
c12 29 38 86 56 126 l34 75 79 -78 c43 -43 96 -93 118 -111z"/>
<path d="M1033 2803 c-21 -8 -15 -41 23 -116 59 -120 104 -186 177 -261 36
-38 38 -38 57 -21 11 10 20 23 20 28 0 6 -27 45 -60 87 -32 43 -84 125 -115
184 -55 103 -66 114 -102 99z"/>
<path d="M3724 2792 c-6 -4 -30 -44 -54 -90 -44 -82 -151 -234 -170 -240 -5
-2 -10 8 -10 21 0 36 -35 113 -54 120 -10 4 -24 -1 -35 -12 -18 -18 -18 -20 0
-72 32 -93 19 -151 -44 -198 -52 -39 -69 -68 -74 -130 -10 -113 72 -228 175
-245 21 -4 27 -14 107 -196 109 -247 110 -248 144 -324 17 -38 31 -74 31 -81
0 -14 -147 -155 -161 -155 -5 0 -9 21 -9 48 0 58 -18 96 -48 100 -27 4 -43
-30 -32 -68 9 -34 3 -110 -11 -137 -6 -11 -32 -32 -58 -46 -54 -30 -86 -61
-100 -100 -18 -46 -13 -133 8 -175 24 -47 78 -101 108 -108 19 -5 29 -27 63
-138 84 -267 71 -241 117 -244 l41 -3 -39 128 c-22 70 -48 154 -58 185 l-19
57 60 31 c33 17 74 40 91 51 l32 19 116 -233 116 -232 41 -3 c23 -2 42 -1 42
2 0 3 -56 118 -125 257 -69 139 -124 253 -123 254 2 2 32 26 67 54 l64 51 137
-307 137 -308 40 -1 c50 -1 63 -40 -116 361 l-138 310 38 40 c70 74 149 180
149 200 0 28 -17 44 -40 38 -11 -3 -38 -31 -61 -62 -44 -58 -197 -215 -259
-265 -104 -84 -281 -186 -315 -180 -75 12 -131 116 -104 194 7 17 37 41 98 77
145 85 280 203 374 326 42 56 47 84 15 97 -19 7 -28 3 -51 -21 l-28 -30 -15
38 c-9 21 -40 91 -70 156 -30 65 -54 120 -54 122 0 2 -13 32 -29 67 -72 158
-73 161 -55 171 9 5 47 36 85 68 l68 59 103 -145 103 -146 -3 -54 c-4 -62 20
-126 65 -174 34 -35 106 -70 143 -71 22 0 34 -15 83 -102 32 -57 68 -121 81
-143 12 -22 38 -67 57 -101 19 -34 86 -152 149 -262 l115 -202 3 74 c3 69 1
77 -35 137 -20 35 -108 189 -194 343 l-158 278 43 42 c23 22 55 58 70 79 16
20 31 37 35 37 3 -1 58 -68 121 -149 l115 -148 3 59 3 59 -83 105 c-46 58 -89
114 -96 124 -12 17 -8 29 37 103 28 46 70 124 93 173 39 82 43 96 46 187 5
130 -12 130 -56 -1 -68 -199 -199 -422 -327 -557 -45 -48 -57 -55 -89 -55 -64
0 -117 40 -139 105 -19 54 -9 84 52 152 99 110 190 268 245 421 30 84 32 105
11 122 -30 25 -52 2 -79 -82 -27 -79 -87 -206 -123 -260 l-19 -27 -19 50 c-33
83 -72 110 -98 68 -8 -13 -4 -32 15 -75 23 -52 33 -94 29 -130 -1 -6 -11 -23
-22 -38 l-21 -27 -47 65 c-25 36 -70 99 -98 139 -29 41 -53 78 -53 82 0 4 25
37 56 73 71 84 138 183 198 293 49 92 55 119 30 140 -21 18 -44 2 -69 -47 -83
-167 -193 -319 -312 -436 -121 -119 -160 -148 -197 -148 -62 0 -128 65 -139
136 -5 32 16 94 32 94 11 0 193 180 233 231 39 49 133 208 148 251 11 30 11
39 1 52 -15 17 -30 20 -47 8z"/>
<path d="M3843 2772 c-7 -4 -30 -44 -52 -87 -35 -72 -129 -215 -166 -252 -31
-30 -5 -79 35 -65 32 11 133 152 193 269 42 83 50 106 41 120 -13 21 -33 27
-51 15z"/>
<path d="M1747 2707 c-67 -62 -80 -90 -55 -115 22 -22 46 -12 114 51 l68 64
-29 31 -30 32 -68 -63z"/>
<path d="M3038 2737 l-26 -32 66 -62 c37 -34 75 -63 84 -63 20 0 48 26 48 45
0 12 -123 138 -138 142 -4 1 -19 -13 -34 -30z"/>
<path d="M924 2736 c-7 -31 34 -112 124 -246 98 -145 128 -170 160 -138 19 19
15 31 -34 94 -61 78 -90 122 -145 224 -38 69 -51 86 -72 88 -21 3 -28 -2 -33
-22z"/>
<path d="M3926 2708 c-9 -12 -16 -25 -16 -29 0 -18 -96 -174 -150 -244 -65
-85 -72 -108 -39 -125 18 -10 26 -6 62 32 93 97 230 336 210 367 -16 25 -49
25 -67 -1z"/>
<path d="M4403 2381 c-6 -3 -24 -49 -42 -102 -29 -89 -45 -123 -115 -253 -25
-46 -25 -50 -10 -68 10 -10 23 -18 31 -18 48 0 215 383 187 428 -11 17 -36 23
-51 13z"/>
<path d="M4470 2258 c-17 -51 -59 -146 -93 -210 -51 -99 -58 -119 -47 -132 22
-27 47 -18 78 28 61 90 148 297 157 371 2 18 -17 35 -40 35 -19 0 -27 -13 -55
-92z"/>
<path d="M411 2246 c-16 -20 13 -123 68 -241 57 -122 88 -167 113 -163 30 4
46 33 31 57 -41 65 -94 177 -113 236 -12 39 -27 81 -34 95 -14 29 -47 37 -65
16z"/>
<path d="M316 2214 c-9 -8 -16 -17 -16 -20 0 -14 64 -184 89 -236 68 -143 108
-183 142 -142 10 13 4 32 -43 122 -31 59 -69 143 -84 187 -38 110 -53 125 -88
89z"/>
<path d="M3122 1897 c-79 -74 -209 -177 -225 -177 -4 0 -7 32 -9 71 -2 55 -7
74 -20 83 -13 8 -23 8 -35 0 -14 -9 -18 -25 -18 -75 -1 -107 -17 -135 -99
-173 -66 -30 -89 -52 -109 -104 -40 -101 2 -231 89 -278 19 -10 34 -20 34 -22
0 -2 30 -149 66 -325 36 -177 67 -331 69 -342 2 -11 14 -68 26 -127 l22 -108
39 0 c21 0 38 3 38 6 0 4 -25 126 -55 273 -31 147 -57 276 -59 287 -2 10 -18
87 -35 170 -36 174 -35 164 -18 164 6 0 51 18 100 39 48 22 87 38 87 36 0 -1
45 -121 101 -266 55 -145 102 -268 103 -274 2 -5 6 -18 9 -27 4 -10 10 -26 14
-35 3 -10 36 -97 73 -193 l67 -175 43 -3 c38 -3 42 -1 35 15 -4 10 -74 196
-156 413 -83 217 -165 434 -184 483 -19 48 -35 91 -35 95 0 5 44 38 98 75 111
77 138 99 244 204 83 82 97 105 78 128 -23 27 -45 15 -130 -71 -141 -143 -318
-265 -491 -339 -74 -32 -88 -35 -119 -26 -47 14 -80 59 -87 121 -10 85 4 104
125 160 141 67 253 143 361 247 95 91 110 122 71 143 -18 9 -31 0 -108 -73z"/>
<path d="M1462 1908 c-24 -24 -10 -49 76 -135 105 -105 233 -197 261 -188 21
6 33 29 25 48 -3 6 -37 35 -76 62 -40 28 -111 89 -159 138 -87 87 -105 97
-127 75z"/>
<path d="M3227 1840 c-43 -44 -116 -107 -163 -141 -85 -62 -99 -84 -69 -109
20 -16 42 -7 127 55 66 49 213 188 229 218 12 22 -5 57 -29 57 -9 0 -52 -36
-95 -80z"/>
<path d="M3306 1766 c-47 -47 -124 -113 -171 -147 -49 -35 -85 -69 -85 -78 0
-20 19 -41 36 -41 15 0 131 78 182 123 70 61 172 169 172 182 0 15 -27 45 -40
45 -4 0 -47 -38 -94 -84z"/>
<path d="M995 1437 c-32 -24 -10 -63 98 -172 156 -157 229 -197 251 -140 6 18
-2 26 -110 114 -43 36 -108 97 -143 138 -35 40 -66 73 -70 73 -4 0 -15 -6 -26
-13z"/>
<path d="M3960 1423 c-8 -2 -30 -26 -49 -53 -33 -50 -133 -156 -204 -218 -40
-35 -48 -66 -19 -80 22 -12 38 -6 81 32 117 104 241 251 241 287 0 20 -27 38
-50 32z"/>
<path d="M913 1372 c-6 -4 -13 -17 -17 -28 -7 -23 41 -83 151 -187 133 -126
214 -165 221 -107 2 21 -8 34 -60 72 -68 50 -162 139 -217 203 -36 42 -61 57
-78 47z"/>
<path d="M3988 1293 c-52 -64 -158 -172 -222 -225 -31 -26 -30 -60 1 -72 26
-10 109 57 218 175 80 86 114 139 106 162 -16 43 -45 32 -103 -40z"/>
<path d="M0 464 c0 -14 3 -14 15 -4 19 16 19 20 0 20 -8 0 -15 -7 -15 -16z"/>
</g>
</svg>
