<svg version="1" xmlns="http://www.w3.org/2000/svg" width="882.667" height="882.667" viewBox="0 0 662.000000 662.000000"><path d="M421 225.5c-9 1.8-21.6 6.8-28.8 11.4-6.8 4.4-12.3 11.3-17.5 21.6-5.9 12.1-7.7 18.5-7.7 28.4 0 19.2 3.4 27.1 18 41.7 10.9 10.9 17.7 16.1 34.2 25.8 13.5 8 26.3 17.1 28.4 20.4 2 3 2.2 10.6.3 12.8-3.5 4.2-19.4 9.1-25.9 7.9-7-1.3-11.2-4.8-16.4-13.7-2.7-4.5-5.6-9.3-6.3-10.6-1.7-2.7-4.2-3.9-5.2-2.4-.3.5-2 1.2-3.6 1.4-2.2.2-2.9.8-2.7 2 .2 1.4-.4 1.8-3.2 1.8-1.9 0-3.7.4-4.1.9-.3.5-2.6.8-5.1.7-3.8-.3-4.8 0-6.1 2-1.2 1.9-1.9 2.2-3.4 1.3-6.3-3.3-4.8 4.9 4.3 24.1 3.4 7.1 5.6 10 13.2 17.5 10.1 10.1 13.9 12.2 27.2 15.7 7.2 1.8 11.4 2.3 22.4 2.2 11.9-.1 14.4-.4 21.4-2.8 15.4-5.2 23.8-12.1 32.4-26.3 3.1-5.2 6.5-10.7 7.5-12.3 2.2-3.6 4.7-16.3 4.7-24.5 0-7.5-3-16.8-8-24.5-4.7-7.3-27.4-24.1-44-32.5-6.9-3.5-16.1-8.8-20.5-11.7-9.1-6-11.8-10.1-13-19.3-1-8.1 1.8-13.5 8.5-16.4 9.6-4.1 15.6-4 21 .6 3.7 3.1 8.7 12.6 9.6 18.2 1 6.4 3.3 8.1 10.4 7.6 3.3-.2 7.5-.9 9.4-1.6 2.5-.9 4.1-.9 6.6 0 1.8.6 4.9 1.1 6.9 1.1 2.9-.1 4.1-.7 6.4-3.7 2.5-3.4 2.7-4.2 2.7-13.7v-10.1l-5.4-11c-5.8-12.1-10-17.6-15.5-20.5-6.7-3.4-26.6-9-35.6-10-10.4-1.1-9.2-1.2-17.5.5zM103 226.4c-2.5.7-7.7 2.7-11.7 4.4-3.9 1.8-8.1 3.2-9.2 3.2-3.8 0-5.8 3.3-6.6 10.8-.4 3.9-.4 7.6 0 8.2.4.6 1.2 19.9 1.8 42.8 1.7 64 1 85.6-3.2 91.2-4.3 5.9-15.7 8.8-21.9 5.6-5.7-2.9-10.4-13.2-12.2-26.8-.6-4.5-1.6-9-2.1-10-1.3-2.4-6-2.3-9.2.2-1.4 1.1-3.4 2-4.6 2-1.2 0-2.7 1.2-3.8 3-1.9 3.3-3.1 3.8-3.9 1.5-.5-1.3-.9-1.3-3.3 0-1.6.8-3.7 1.2-4.8.9-1.2-.3-2.4-.1-2.7.5-.4.6-1.6 1.1-2.6 1.1s-2.1.4-2.4.8c-.3.5-.1 5.1.5 10.3 2.3 22 6.3 33 15.9 43.2 4.8 5.2 7.8 7.3 16.4 11.4 8.9 4.4 11.8 5.3 19.3 6.1 4.8.6 11.3.6 14.4.2 10.2-1.4 40.9-17 47.6-24.2 3-3.2 9-17.2 11.6-27.1 2.1-7.9 2.2-9.8 2.1-57.2-.1-27-.2-59.2-.3-71.6-.3-26.9-.4-27.1-9.6-30-6.9-2.2-9.3-2.2-15.5-.5zM181.6 230.5c-7.8 5.2-8.5 11.2-8.8 72-.2 48.2.7 66.7 4.3 86.9 2.8 15.6 16.3 33.8 29.9 40.4 9.8 4.7 23.7 9 31.5 9.7 8.5.8 20.4-1 39-6.1 17.7-4.8 23.3-7.5 29.8-14.3 15.9-16.7 21.6-40.8 21.7-91.1.1-10.2.5-24.4 1-31.5.5-7.2.6-23.5.3-36.4-.7-26.7-.5-26-9.5-28.5-9.6-2.6-10.6-2.7-12.2-1-.9.8-2 1.3-2.4 1-.5-.3-2.3 0-4 .6-2.3.9-3.5.9-4.3.1-.8-.8-1.9-.7-4.2.5-5.9 2.9-6.3 3-8 2.1-1.3-.8-2.3-.1-4.6 3.2-1.7 2.3-3.3 5.5-3.5 7.3-.3 1.7-.8 25.4-1.1 52.6-.7 65.2-1.4 78.4-4.1 83-3.7 6.4-15.1 11.9-26 12.8-6 .4-6.3.3-10.4-3.4-10.2-9.2-11-15.9-11.5-92.2l-.3-60.4-2.2-2.3c-1.2-1.3-3.6-2.9-5.3-3.5-1.8-.7-4.3-1.7-5.7-2.3-1.5-.7-7.5-1.2-14.5-1.2-10.3 0-12.3.3-14.9 2zM523.7 230.6c-1.5 1.5-2.9 3.7-3.2 4.8-.6 3-1.7 14.8-1.6 16.6 0 .8.2 4.1.4 7.2.3 6.1 2.1 8.7 6.2 8.8 6.6.3 36.6 2.8 36.9 3.1.2.2.6 27.9.9 61.6.2 33.6.7 61.5 1 62.1.4.5 1.1 9.9 1.7 20.8.6 10.9 1.3 20.7 1.6 21.6.7 2.2 3.2 2.3 6.2.2 1.8-1.2 2.6-1.3 3.7-.4 1.8 1.5 4.5.6 4.5-1.5 0-1.7 3.5-2.1 4.5-.5 1.3 2 7.2 1 11.8-2.1 3.6-2.4 5.1-2.9 6.1-2 4 3.4 6.6-9 7.1-34.9 2.4-107.2 3-124 4.8-124 .7 0 9.9-.7 20.5-1.4 15-1.1 19.7-1.8 21.1-3 2.2-2 3.5-15.4 2-19.4-.7-1.8-.7-3.3.2-4.8.7-1.4.8-3 .4-4.1-.5-1-.9-2.9-.9-4.2-.1-1.3-1.2-3.1-2.6-4.1-2.3-1.7-7.4-1.9-66.5-2.5l-64.1-.7-2.7 2.8z"/></svg>